<svg xmlns="http://www.w3.org/2000/svg" viewBox="0 0 335.733032 35.181641" aria-label="Senckenberg">
	<path fill="#FFFFFF" d="M151.003235 21.043457c0 .399902.007812.973877.023987 1.723145.016235.74829.036926 1.538818.063171 2.37085.006348.206542.01294.406982.019714.601806-.206604-.38086-.41925-.763428-.637695-1.147705-.385559-.677735-.745972-1.307618-1.081238-1.88916-.338012-.579346-.627441-1.043214-.868835-1.391358l-8.821106-14.00586h-4.048218v23.554932l3.65149-.002197V18.30835c0-.421876-.003357-.999024-.009522-1.731202-.005554-.731933-.023987-1.590576-.054748-2.576904-.016236-.502686-.03656-1.033203-.060975-1.591797.387269.669922.752259 1.303467 1.095276 1.900879.520203.906738.983948 1.696777 1.390747 2.37085.40619.674316.745911 1.226806 1.020264 1.659423l7.91986 12.520508h4.062684V7.305176h-3.664856v13.738281Zm-40.663086-1.00415c-.644226-.57666-1.37622-1.046631-2.169067-1.391846-.970032-.42749-1.978028-.762207-3.01062-1.000244l-2.483094-.600098c-.860474-.188232-1.699768-.463623-2.504944-.821777-.562073-.239746-1.058288-.611328-1.447143-1.083008-.318482-.42627-.484986-.946533-.472718-1.477783-.012878-.668946.198365-1.323242.599549-1.858643.43695-.558105 1.015808-.989502 1.67627-1.247558.747192-.301026 1.544616-.45581 2.349609-.45581.03479 0 .06964.000487.10443.000976a5.264614 5.264614 0 0 1 .263123-.006592c1.177735 0 2.325074.393066 3.25763 1.120117.897949.767822 1.431518 1.878662 1.470093 3.059326h3.509033c-.007263-1.376953-.390015-2.725097-1.106934-3.900146-.710144-1.11206-1.724853-1.996582-2.922851-2.548584-1.312806-.595215-2.736512-.902832-4.176148-.902832-.078064 0-.155945.000976-.23413.002685-.076844-.001709-.15381-.002441-.230653-.002441-1.444458 0-2.874573.293701-4.203125.863525-1.191772.510742-2.216003 1.345948-2.95636 2.4104-.713562 1.076905-1.080078 2.346192-1.051025 3.636964-.0531 1.50415.542542 2.95874 1.636047 3.992431 1.479615 1.214111 3.24585 2.0271 5.129944 2.361817l2.592102.617431c.88672.195557 1.75.483887 2.575867.859375.574402.249268 1.073364.644776 1.447205 1.145996.305603.464356.462646 1.010254.449768 1.565186.013427.708496-.216248 1.400146-.649842 1.95996-.472106.58838-1.097961 1.034913-1.808105 1.289063-.823242.298828-1.692383.452149-2.567688.452149-.052673 0-.105225-.000733-.15796-.00171-.056579.001465-.11322.001954-.169799.001954-.947144 0-1.885315-.193848-2.75531-.57129-.781128-.34204-1.442688-.90869-1.89978-1.627685-.464295-.773926-.706238-1.659668-.700135-2.56128H94.10321c-.026794 1.486085.361511 2.950196 1.12091 4.228028.753724 1.204102 1.848878 2.15625 3.146363 2.735107 1.447327.633301 3.009033.959717 4.586914.959717.09668 0 .193115-.00122.289917-.003662.085205.001953.170532.002686.255738.002686 1.51654 0 3.019165-.296143 4.423278-.87378 1.23877-.508056 2.30603-1.360595 3.07483-2.456298.731994-1.095215 1.10913-2.389893 1.081237-3.706788.012818-.799072-.138-1.592529-.442016-2.331298-.29889-.696045-.742005-1.32129-1.300232-1.83374Zm9.286011.419189h11.285217v-3.146484h-11.286865v-6.813477h12.19989V7.305176h-15.851929v23.554931l15.853638-.002197v-3.19043H119.62616v-7.208984zm46.105896-9.116211c1.109436-.720215 2.40271-1.102295 3.722534-1.102295.05548 0 .1109.000733.166443.001953h.058532c.729004 0 1.453064.111573 2.147461.332032.66266.21289 1.282898.539306 1.833252.964355.547608.427002 1.013611.94873 1.376221 1.541016.390015.646484.66101 1.35791.799622 2.099853h3.716247c-.178222-1.198974-.57495-2.355713-1.169983-3.41162-.563232-.992433-1.30194-1.873048-2.180847-2.600587-.887878-.728515-1.90033-1.29126-2.98822-1.659424-1.135925-.38208-2.325989-.57666-3.52356-.57666-.031921 0-.06366.000244-.09552.000488a11.060416 11.060416 0 0 0-.220397-.002197c-1.932373 0-3.829957.523194-5.491822 1.515381-1.66565 1.023682-3.008362 2.497559-3.872742 4.251465-.964965 1.993164-1.441589 4.186767-1.390747 6.400146-.048034 2.203125.434693 4.385743 1.406983 6.363037.869385 1.755127 2.212646 3.231446 3.877746 4.26172 1.655457.99536 3.54895 1.520263 5.477417 1.520263a10.38895 10.38895 0 0 0 .213562-.002197c.029786.000244.059754.000488.089539.000488 1.203552 0 2.398865-.197754 3.538452-.58545 1.090698-.369872 2.106506-.932128 3-1.658935.877808-.720215 1.614807-1.596923 2.174072-2.584716.58783-1.051026.979554-2.199952 1.156067-3.391114h-3.715149c-.14807.737549-.423522 1.443604-.814086 2.086914-.360962.58545-.82422 1.102295-1.36676 1.52539-.546449.420167-1.161622.743653-1.818177.955323-.691895.220215-1.413635.332276-2.139343.332276-.024476 0-.04889 0-.073365-.000244-.056457.001464-.113098.001953-.169494.001953a6.86723 6.86723 0 0 1-3.730591-1.101563c-1.126465-.763916-2.00763-1.837158-2.537354-3.091064-.617431-1.4646-.919128-3.04297-.88562-4.63208-.035217-1.600342.269287-3.189454.892884-4.664063.53308-1.250977 1.413085-2.323242 2.536743-3.089844Zm28.160766 7.456787 8.489319-11.493896h-4.428711l-7.319275 9.943115h-4.030823V7.305176h-3.77832v23.553955h3.77832V20.710449h4.288392l7.661499 10.149658h4.394897l-9.055298-12.061035zm15.749268 1.659424h11.287414v-3.146484h-11.294128v-6.813477h12.19989V7.305176h-15.853088v23.554931h15.860351V27.66748H209.64209v-7.208984zm94.042297.664795c1.20691-.546387 2.23053-1.43042 2.9469-2.545166.715759-1.168213 1.07782-2.518799 1.043152-3.888916.034668-1.371094-.303956-2.726074-.980042-3.919678-.665466-1.118164-1.650574-2.010498-2.82898-2.561279-1.305603-.595703-2.723022-.90332-4.155822-.90332-.090332 0-.180786.00122-.27124.003662h-8.9563v23.551514l3.648133-.003907v-8.832763h4.825256l6.366638 8.83667 4.107972-.003907-6.820435-9.322754c.364685-.116455.72351-.253173 1.074768-.410156Zm-4.271484-2.197754c-.053894 0-.107727-.000488-.161743-.001953h-5.120972v-8.472656h5.105896a6.495953 6.495953 0 0 1 .168884-.002198c.8396 0 1.670593.175538 2.439392.516358.681702.311767 1.256104.817383 1.651734 1.453857.400573.687256.600647 1.473389.577148 2.268067.02124.791748-.175964 1.573974-.569885 2.260254-.390625.643066-.966126 1.152587-1.652283 1.462158-.768127.34082-1.598938.516113-2.438171.516113Zm-58.398803 2.11792c0 .399902.00836.973877.023986 1.723145.016235.74829.037476 1.538818.063171 2.37085.006531.206542.013184.406982.02002.601806-.206604-.38086-.41925-.763428-.638-1.147705-.38556-.677735-.746522-1.307618-1.082886-1.88916-.337464-.579346-.626954-1.043214-.868897-1.391358l-8.821106-14.00586h-4.047058v23.554932h3.655945V18.30835c0-.421875-.002808-.999023-.007813-1.7312-.005615-.731934-.024048-1.590577-.056457-2.576905-.01593-.502197-.03595-1.03247-.06018-1.590576.386779.669433.752074 1.302734 1.09558 1.899658.52185.906738.985657 1.696777 1.390747 2.37085.40619.674316.745972 1.226806 1.020264 1.659423l7.918762 12.520508h4.062134V7.305176h-3.668213v13.738281Zm87.529967-.016357h-4.014648l2.693115 3.739502c-.0661.114257-.13385.227295-.203308.3396-.360962.585448-.824158 1.102294-1.36676 1.52539-.546997.420166-1.161621.743652-1.818176.955322-.689026.22046-1.40857.332276-2.131531.332276-.022766 0-.045472 0-.068299-.000245a6.726743 6.726743 0 0 1-.171814.002198c-1.32196 0-2.616943-.382569-3.728332-1.101807-1.123657-.766601-2.003662-1.839355-2.536194-3.091064-.622986-1.462891-.927551-3.041993-.893982-4.63208-.035217-1.600342.269287-3.189942.893982-4.664063.532532-1.250977 1.412537-2.32373 2.536194-3.089844 1.109436-.720215 2.40271-1.102295 3.722534-1.102295.055481 0 .110901.000733.166443.001953h.053589c.732422 0 1.460937.111573 2.159668.332032.663208.210693 1.283996.536865 1.833801.964355.543152.4292 1.005798.95044 1.36676 1.541016.390564.646484.66156 1.35791.80011 2.099853h3.730835c-.189941-1.198974-.593383-2.355224-1.190735-3.41162-.56317-.992433-1.30188-1.873048-2.180786-2.600587-.887878-.728515-1.89978-1.29126-2.987121-1.659424-1.135864-.38208-2.326538-.57666-3.524658-.57666-.03186 0-.06366.000244-.09552.000488-.070374-.001464-.140992-.001953-.211304-.001953-1.93219-.000244-3.829102.524414-5.488586 1.519532-1.664002 1.0271-3.006165 2.500488-3.873902 4.252197-.970581 1.991455-1.4505 4.185547-1.400268 6.399902-.047486 2.20337.434753 4.385254 1.406982 6.363281.869446 1.755127 2.213806 3.230713 3.880005 4.26001 1.657165.995361 3.5531 1.52002 5.483581 1.52002.066529 0 .132935-.000733.199524-.001953.029846.000244.059815.000244.0896.000244 1.203552 0 2.398865-.19751 3.538452-.585205l.002197-.007325c1.068909-.359863 2.064636-.908447 2.939636-1.619873.466248-.3562.890625-.762207 1.266297-1.210449l2.189636 3.040283 4.121948.00293-7.188965-9.835937Zm-54.090576-.568604h11.285828v-3.146484h-11.290283v-6.813477h12.2005V7.305176h-15.85199v23.554931l15.855896-.003906V27.66748h-12.199951v-7.208984zm-9.920166-.965088c-.752075-.45752-1.593017-.74878-2.466919-.853271v-.046875c.760498-.217285 1.475098-.571045 2.109864-1.043213.589477-.445313 1.063903-1.02588 1.384033-1.691895.340881-.743164.507934-1.553955.488952-2.37085.030152-1.151122-.283325-2.284667-.900207-3.25708-.649231-.95703-1.563965-1.704101-2.631714-2.149902-1.239807-.514404-2.56781-.778808-3.908264-.778808-.091309 0-.182617.00122-.274048.003662h-8.851868v23.554931h9.175965c.118164.003907.236389.005616.35443.005616 1.45929 0 2.905457-.280518 4.260865-.827393 1.139343-.46997 2.109924-1.275146 2.782105-2.308838.633606-1.041504.955444-2.243408.925842-3.462158.03131-1.008545-.200623-2.008057-.67218-2.90039-.420777-.76709-1.032593-1.413087-1.776856-1.873536ZM253.1073 10.355957h5.137756c.093018-.005615.185974-.008545.278687-.008545 1.010986 0 1.995605.338135 2.795593.9646.737.645508 1.14154 1.590332 1.10022 2.569336.013977.662109-.159241 1.314209-.500122 1.881836-.344727.548095-.845398.980468-1.438233 1.240966-.6651.28833-1.381958.436768-2.105896.436768a5.841253 5.841253 0 0 1-.130798-.001465h-5.138367l.00116-7.083496Zm8.893188 16.511475c-.96814.61328-2.088196.936279-3.228637.936279-.127991 0-.255982-.003906-.384278-.012207H253.1073V20.37793h5.407104c.052674-.001221.10547-.001953.158081-.001953.821045 0 1.634583.15918 2.395997.468994.662658.270996 1.229248.733642 1.627624 1.328369.3833.60669.578308 1.313476.561035 2.031006.054749 1.04248-.41742 2.042724-1.256652 2.663086ZM11.429993 1.1333c-.019043-.000243-.038147-.000243-.05719-.000243-1.509888 0-3.004456.305908-4.393372.90039-1.362243.577149-2.60321 1.405274-3.659302 2.441162C2.269714 5.510986 1.43097 6.742676.852112 8.100342.323914 9.330078.035095 10.648438 0 11.983398v.553956c.02069 1.478027.34198 2.936279.945435 4.285644 1.161682 2.631348 3.28662 4.717773 5.937927 5.83252 1.34137.568603 2.782959.861083 4.239319.861083.023315 0 .046508 0 .069824-.000244.012512.000245.025268.000245.03778.000245.96631 0 1.928284-.126954 2.862183-.377198.915222-.246582 1.795838-.607422 2.620545-1.073974 1.629333-.926514 3.001098-2.245606 3.990112-3.837159l.055054-.08252-.002015-17.01245h-9.326172Zm23.198486 12.499757c-1.342712-.569092-2.785583-.862305-4.24347-.862305-.02185 0-.043822 0-.065673.000244h-.03833c-1.919983 0-3.807007.500244-5.474915 1.452148-.810241.464356-1.559509 1.027588-2.23059 1.67749-.679993.653077-1.276734 1.38794-1.778504 2.187012l-.038818.058106.001953 17.036377h9.35022c.020446.000244.04071.000244.061157.000244 1.508484 0 3.002319-.305908 4.389892-.90039 2.746338-1.162598 4.933289-3.346924 6.099976-6.092042.600647-1.400146.890686-2.915039.849853-4.43872-.023437-1.473633-.345275-2.92749-.944824-4.273926-1.156616-2.637451-3.282715-4.729492-5.937927-5.844239Zm29.62085-7.139649v17.68457c-.504517-1.32251-1.020264-2.69995-1.54718-4.131347-.526368-1.43213-1.049927-2.856934-1.57013-4.274658-.519043-1.41626-1.026978-2.797608-1.522583-4.143555-.496216-1.346191-.976135-2.58545-1.439941-3.718018-.467102-1.133789-.900147-2.140625-1.300232-3.02246-.311219-.712891-.678894-1.399659-1.100159-2.053956-.604065-.869384-1.414246-1.57495-2.357971-2.054443C52.384216.261719 51.26129.000244 50.135376 0h-.002747c-.871582.000244-1.744812.156738-2.57727.472168-.773926.297852-1.489136.729248-2.11322 1.275146-.599.526368-1.085144 1.168946-1.427674 1.88916-.347534.730225-.525207 1.529298-.519043 2.337891v29.207276H64.24933V24.181397c.314575.739746.601806 1.400878.862182 1.98291.259827.581787.507935 1.108642.743714 1.58081.236877.472168.473266.905762.709045 1.300293s.472168.772705.707947 1.13379c.614074.878905 1.439392 1.58911 2.399902 2.065185 1.00116.50537 2.106201.76831 3.226868.76831a5.585967 5.585967 0 0 0 .090454-.000732c.01764.000244.0354.000244.052978.000244.862183 0 1.716797-.160156 2.52063-.47168.773926-.297851 1.489136-.729248 2.113281-1.275146.601197-.528565 1.087342-1.175781 1.428162-1.90039.344727-.72632.522461-1.521485.519653-2.32544V6.493408H64.249328Z"></path>
</svg>